<svg height="300px" width="300px" fill="#505962" xmlns="http://www.w3.org/2000/svg" viewBox="0 0 25 25" x="0px" y="0px"><title>interface, bag, briefcase, journey, recreation, suitcase, travel</title><g><path d="M21.5,7H16V5.5a.5.5,0,0,0-.5-.5h-6a.5.5,0,0,0-.5.5V7H3.5a.5.5,0,0,0-.5.5v12a.5.5,0,0,0,.5.5h18a.5.5,0,0,0,.5-.5V7.5A.5.5,0,0,0,21.5,7ZM10,6h5V7H10ZM21,8V9.3336L19.9,10.8A5.526,5.526,0,0,1,15.5,13h-6a5.526,5.526,0,0,1-4.4-2.2L4,9.3336V8ZM4,19V11l.3.4A6.53,6.53,0,0,0,9.5,14h6a6.53,6.53,0,0,0,5.2-2.6L21,11v8Zm8-7.5a.5.5,0,1,1,.5.5A.5.5,0,0,1,12,11.5Z"/></g></svg>
