<svg height="300px" width="300px" fill="#505962" xmlns="http://www.w3.org/2000/svg" xmlns:xlink="http://www.w3.org/1999/xlink" version="1.1" x="0px" y="0px" viewBox="0 0 512 512" style="enable-background:new 0 0 512 512;" xml:space="preserve"><g><g><g><g><g><path d="M332.754,471c-0.005,0.001-0.013,0.001-0.02,0H179.265c-3.193,0-6.193-1.524-8.076-4.104       c-1.883-2.578-2.421-5.9-1.449-8.942l28.776-90c1.325-4.143,5.175-6.954,9.525-6.954h95.918c4.35,0,8.2,2.812,9.525,6.955       l28.576,89.378c0.447,1.135,0.693,2.373,0.693,3.667C342.754,466.522,338.277,471,332.754,471z M192.961,451h126.077       l-22.381-70h-81.315L192.961,451z"/></g><g><path d="M380.694,471H131.306c-5.523,0-10-4.478-10-10s4.477-10,10-10h249.388c5.522,0,10,4.478,10,10S386.217,471,380.694,471       z"/></g></g><circle cx="255.414" cy="340.516" r="10.484"/><g><path d="M452.231,381H59.769c-18.564,0-33.667-15.103-33.667-33.667V74.667C26.102,56.103,41.205,41,59.769,41h392.463      c18.563,0,33.666,15.103,33.666,33.667v272.667C485.897,365.897,470.795,381,452.231,381z M59.769,61      c-7.536,0-13.667,6.131-13.667,13.667v272.667c0,7.536,6.131,13.667,13.667,13.667h392.463c7.535,0,13.666-6.131,13.666-13.667      V74.667c0-7.536-6.131-13.667-13.666-13.667H59.769z"/></g><g><path d="M225.907,241.002c-3.472,0-6.846-1.81-8.692-5.041c-2.74-4.795-1.074-10.904,3.721-13.644l140-80      c4.793-2.738,10.903-1.075,13.644,3.721c2.74,4.795,1.074,10.904-3.722,13.644l-139.999,80      C229.294,240.577,227.589,241.002,225.907,241.002z"/></g><g><path d="M190.907,221.001c-3.472,0-6.846-1.81-8.692-5.04c-2.74-4.795-1.074-10.904,3.721-13.644l70-40      c4.794-2.739,10.904-1.074,13.644,3.721s1.074,10.904-3.722,13.644l-69.999,40C194.294,220.577,192.589,221.001,190.907,221.001      z"/></g><g><path d="M435.897,321h-360c-5.523,0-10-4.478-10-10V91c0-5.523,4.477-10,10-10h360c5.522,0,10,4.477,10,10v220      C445.897,316.522,441.42,321,435.897,321z M85.898,301h340V101h-340V301z"/></g></g></g></g></svg>
