<svg height="300px" width="300px" fill="#505962" xmlns="http://www.w3.org/2000/svg" xmlns:xlink="http://www.w3.org/1999/xlink" version="1.1" x="0px" y="0px" viewBox="0 0 1024 1024" style="enable-background:new 0 0 1024 1024;" xml:space="preserve"><g><g><g><path d="M631.3,180.8c30.6,0,61.2,0,91.7,0c48.9,0,97.8,0,146.7,0c11.2,0,22.3,0,33.5,0c-20-20-40-40-60-60     c0,30.6,0,61.2,0,91.7c0,48.9,0,97.8,0,146.7c0,11.2,0,22.3,0,33.5c0,15.4,6.7,31.5,17.6,42.4c10.4,10.4,27.5,18.2,42.4,17.6     c15.5-0.7,31.6-5.8,42.4-17.6c10.8-11.7,17.6-26.2,17.6-42.4c0-30.6,0-61.2,0-91.7c0-48.9,0-97.8,0-146.7c0-11.2,0-22.3,0-33.5     c0-32.4-27.5-60-60-60c-30.6,0-61.2,0-91.7,0c-48.9,0-97.8,0-146.7,0c-11.2,0-22.3,0-33.5,0c-15.4,0-31.5,6.7-42.4,17.6     c-10.4,10.4-18.2,27.5-17.6,42.4c0.7,15.5,5.8,31.6,17.6,42.4C600.6,174,615,180.8,631.3,180.8L631.3,180.8z"/></g></g><g><g><path d="M494.4,614.4c15-15,29.9-29.9,44.9-44.9c35.9-35.9,71.8-71.8,107.8-107.8     c43.5-43.5,86.9-86.9,130.4-130.4c37.6-37.6,75.1-75.1,112.7-112.7c18.3-18.3,36.7-36.4,54.8-54.8c0.3-0.3,0.5-0.5,0.8-0.8     c10.9-10.9,17.6-27,17.6-42.4c0-14.7-6.5-32.3-17.6-42.4c-11.4-10.5-26.4-18.3-42.4-17.6c-15.9,0.7-30.9,6.1-42.4,17.6     c-15,15-29.9,29.9-44.9,44.9C780,159.1,744.1,195,708.2,230.9c-43.5,43.5-86.9,86.9-130.4,130.4     c-37.6,37.6-75.1,75.1-112.7,112.7c-18.3,18.3-36.7,36.4-54.8,54.8c-0.3,0.3-0.5,0.5-0.8,0.8c-10.9,10.9-17.6,27-17.6,42.4     c0,14.7,6.5,32.3,17.6,42.4C421,624.9,436,632.7,452,632C467.9,631.3,482.9,625.9,494.4,614.4L494.4,614.4z"/></g></g><g><g><path d="M843.3,612.8c0,25.7,0,51.3,0,77c0,40.1,0,80.2,0,120.3c0,11,0.8,22.4-0.7,33.3c0.7-5.3,1.4-10.6,2.1-16     c-0.9,5.8-2.4,11.3-4.6,16.8c2-4.8,4-9.6,6-14.3c-2.4,5.7-5.5,10.9-9.2,15.9c3.1-4,6.3-8.1,9.4-12.1c-3.8,4.8-8.1,9.1-12.9,12.9     c4-3.1,8.1-6.3,12.1-9.4c-4.9,3.7-10.2,6.8-15.9,9.2c4.8-2,9.6-4,14.3-6c-5.4,2.2-11,3.7-16.8,4.6c5.3-0.7,10.6-1.4,16-2.1     c-8.2,1.1-16.7,0.7-25,0.7c-15.5,0-30.9,0-46.4,0c-51.6,0-103.2,0-154.8,0c-62.7,0-125.5,0-188.2,0c-54,0-108,0-162,0     c-25.4,0-50.8,0.2-76.1,0c-3.4,0-6.8-0.2-10.2-0.7c5.3,0.7,10.6,1.4,16,2.1c-5.8-0.9-11.3-2.4-16.8-4.6c4.8,2,9.6,4,14.3,6     c-5.7-2.4-10.9-5.5-15.9-9.2c4,3.1,8.1,6.3,12.1,9.4c-4.8-3.8-9.1-8.1-12.9-12.9c3.1,4,6.3,8.1,9.4,12.1     c-3.7-4.9-6.8-10.2-9.2-15.9c2,4.8,4,9.6,6,14.3c-2.2-5.4-3.7-11-4.6-16.8c0.7,5.3,1.4,10.6,2.1,16c-1.1-8.2-0.7-16.7-0.7-25     c0-15.5,0-30.9,0-46.4c0-51.6,0-103.2,0-154.8c0-62.7,0-125.5,0-188.2c0-54,0-108,0-162c0-25.4-0.2-50.8,0-76.1     c0-3.4,0.2-6.8,0.7-10.2c-0.7,5.3-1.4,10.6-2.1,16c0.9-5.8,2.4-11.3,4.6-16.8c-2,4.8-4,9.6-6,14.3c2.4-5.7,5.5-10.9,9.2-15.9     c-3.1,4-6.3,8.1-9.4,12.1c3.8-4.8,8.1-9.1,12.9-12.9c-4,3.1-8.1,6.3-12.1,9.4c4.9-3.7,10.2-6.8,15.9-9.2c-4.8,2-9.6,4-14.3,6     c5.4-2.2,11-3.7,16.8-4.6c-5.3,0.7-10.6,1.4-16,2.1c9.2-1.2,18.8-0.7,28.1-0.7c17.3,0,34.6,0,51.9,0c40.7,0,81.5,0,122.2,0     c9.5,0,18.9,0,28.4,0c15.4,0,31.5-6.7,42.4-17.6c10.4-10.4,18.2-27.5,17.6-42.4c-0.7-15.5-5.8-31.6-17.6-42.4     c-11.7-10.8-26.2-17.6-42.4-17.6c-28.2,0-56.5,0-84.7,0c-40.5,0-80.9,0-121.4,0c-17.5,0-35.3,0-52.2,5.5     c-11.8,3.8-24,8.9-34.1,16.3c-6.4,4.7-13.3,9.7-19.1,15.3c-6.2,5.9-11.2,13.1-16.3,19.9c-14.9,20-22,46.4-22.6,71.1     c-0.3,12.5,0,25,0,37.5c0,31,0,62,0,93.1c0,42.7,0,85.3,0,128c0,46.1,0,92.3,0,138.4c0,42,0,84,0,126c0,30.2,0,60.4,0,90.5     c0,20.3-0.4,39.5,3.2,59.6c0.7,4,1.8,7.8,3.2,11.6c3,8.1,6.3,16.3,10.4,23.9c5.8,10.5,13.5,20.4,22.1,28.7     c17.5,16.9,40.8,30.4,65,34.3c11.4,1.8,21.9,2.8,33.2,2.8c21.6,0,43.1,0,64.7,0c37.2,0,74.4,0,111.6,0c45.3,0,90.5,0,135.8,0     c45.2,0,90.4,0,135.7,0c37.6,0,75.2,0,112.7,0c22.2,0,44.4,0,66.6,0c4.5,0,9.1,0.1,13.6-0.2c12.6-0.9,25.6-2.5,37.5-7.2     c7.6-3,15.5-6,22.6-10.1c7.6-4.4,14.7-10.2,21.3-15.7c9.4-7.8,17.1-18,23.8-28.1c6.6-10.1,11.5-21.9,14.8-33.5     c4.8-16.9,4.8-33.8,4.8-51c0-18.1,0-36.1,0-54.2c0-42.3,0-84.6,0-126.9c0-7.9,0-15.8,0-23.7c0-15.4-6.7-31.5-17.6-42.4     c-10.4-10.4-27.5-18.2-42.4-17.6c-15.5,0.7-31.6,5.8-42.4,17.6C850,582.1,843.3,596.5,843.3,612.8L843.3,612.8z"/></g></g></g></svg>
